<svg xmlns="http://www.w3.org/2000/svg" width="1068" height="540" viewBox="0 0 1068 540">
  <defs>
    <style>
      .cls-1 {
        fill: #3a2802;
      }

      .cls-1, .cls-2 {
        fill-rule: evenodd;
      }

      .cls-2 {
        fill: #1d4602;
      }
    </style>
  </defs>
  <path id="D" class="cls-1" d="M482,171.674q-28.008-44.379-73.5-59.422Q371,99.714,281,99.713H194q-8.508,0-8.5,4,0,5.508,11.5,5.5,22,0,25.75,4t3.75,28.5v269.5q0,15.5-2,19-5,7.5-25.5,7.5-16.008,0-16,4.5,0,5,9.5,5H328q75.492,0,120.5-36.1,61.5-49.137,61.5-137.4Q510,216.056,482,171.674ZM419,398.6q-33,38.121-87,38.117-38.508,0-50.5-6.016a8.153,8.153,0,0,1-4.25-5.015q-0.75-3.012-.75-17.055V141.807q0-20.556,3-24.071,7-7.019,40.5-7.023,69,0,101.5,38.875T454,271.705q0,86.766-35,126.891h0Z"/>
  <path id="ish" class="cls-2" d="M559.245,189.463q-16.875,0-16.875,17.625a15.252,15.252,0,0,0,4.875,11.437,16.624,16.624,0,0,0,12,4.688q16.875,0,16.875-16.875t-16.875-16.875h0ZM599,436.963q-10.881,0-16.5-1.494-3.375-.747-3.937-3.369T578,414.516V294.041q0-14.959-2.959-20.578l-3.7,2.191q-17.763,10.591-42.551,11.684-6.293.334-6.287,2.625c0,1.752,1.371,2.625,4.125,2.625h14.625q4.122,0,4.688,1.687t0.937,11.063V418.963q0,13.878-1.312,15.562T530,436.588q-7.506,0-7.5,3.973c0,1.851,1.371,2.777,4.125,2.777a7.018,7.018,0,0,0,4.5-1.5h39q7.5,0,18.75.75,9.369,0.747,9,.75,6.372,0,6.375-3.375,0-3-5.25-3h0Zm98.625-74.438q-10.5-10.141-49.5-25.558Q622.992,327.193,623,308.4a26.4,26.4,0,0,1,8.25-19.922q8.244-7.892,21-7.892a36.836,36.836,0,0,1,23.813,8.326A43.759,43.759,0,0,1,690.5,310.863q3.375,11.357,5.625,11.35a2.651,2.651,0,0,0,3-3v-0.75q-2.25-19.872-1.875-28.875v-18q0-3-2.6-3c-1.489,0-2.608,1.254-3.352,3.75q-1.863,7.506-9.674,7.5a23.376,23.376,0,0,1-6.7-1.125q-14.88-4.5-22.318-4.5-20.839,0-34.975,14.285T603.5,323.824q0,31.57,41.625,47.356,21,7.891,25.313,9.961A40.5,40.5,0,0,1,680,388.1q9.369,8.647,9.375,23.3,0,13.158-8.25,21.047t-21.75,7.893q-25.128,0-40.125-19.647-7.506-9.817-9.75-27.2c-0.252-2.765-1.377-4.154-3.375-4.154q-2.628,0-2.625,4.125v50.25q0,3,2.608,3t4.1-4.5q2.6-7.119,7.823-7.125a18.559,18.559,0,0,1,8.566,2.625q18.246,9,30.908,9a52.626,52.626,0,0,0,37.8-15.223,49.448,49.448,0,0,0,15.826-37.019,42.94,42.94,0,0,0-13.5-31.946h0Zm175.5,74.813q-19.125,0-19.5-3.75v-94.5q0-19.872-.75-25.125-1.5-14.994-7.875-23.25-12.753-16.5-42.75-16.5-28.5,0-45,24V206.338q0-24.372-2.625-28.875a36.963,36.963,0,0,0-5.25,1.875,86.457,86.457,0,0,1-36.75,9q-10.881.4-12.75,0.8c-1.254.269-1.875,1.2-1.875,2.789q0,2.794,9,2.789,16.119,0.378,18.375,4.131,1.872,4.887,1.875,64.974V432.457q-0.378,5.634-9,5.256l-5.625.375H707c-2.754,0-4.125.867-4.125,2.6,0,1.518,1.371,2.274,4.125,2.274h3.75q3.375-.378,34.5,0H778.62c2.5,0,3.75-.873,3.75-2.619q0-2.988-4.5-2.994-13.5-.37-16.125-0.932t-3-4.307q-0.378-1.494-.375-11.595v-95.4q0-17.957,3.75-23.2,11.25-16.085,29.25-16.084,21.744,0,28.125,17.209,3,8.235,3,42.275v75.944q0,11.97-1.312,14.027t-9.938,2.057q-14.256,0-14.25,2.619,0,3,4.875,2.994h68.25q6.372,0,6.375-3,0-1.872-3.375-2.625h0Z"/>
</svg>
